<svg width="64" height="64" viewBox="0 0 64 64" fill="none" xmlns="http://www.w3.org/2000/svg">
<path fill-rule="evenodd" clip-rule="evenodd" d="M32 16.5388C33.3637 16.5388 34.6 17.091 35.4932 17.9865C36.3864 18.8797 36.9409 20.1161 36.9409 21.4797C36.9409 22.841 36.3886 24.0751 35.4932 24.9706L35.4886 24.9751C34.5931 25.8683 33.359 26.4229 31.9977 26.4229C30.634 26.4229 29.3977 25.8706 28.5045 24.9751C27.6113 24.0819 27.0568 22.8456 27.0568 21.482C27.0568 20.1206 27.6091 18.8865 28.5045 17.9911L28.5068 17.9888C29.4045 17.091 30.6386 16.5388 32 16.5388ZM24.0046 14.9615C24.0933 15.1206 24.1819 15.2797 24.2751 15.4388C24.4137 15.6797 24.5546 15.932 24.6296 16.0683L24.6501 16.107C24.7387 16.2706 24.7819 16.3479 24.816 16.4047V16.407L24.8183 16.4047C25.0024 16.7251 25.091 16.8797 25.0933 17.1729C25.0978 17.441 25.0228 17.5842 24.8842 17.857C24.8387 17.9456 24.7774 18.0683 24.6774 18.291C24.5365 18.607 24.4751 18.8206 24.4296 18.9706C24.2546 19.5615 24.2024 19.7411 23.5319 19.9251C23.3637 19.9706 23.191 20.0161 22.991 20.0683C22.5933 20.1706 22.0955 20.3001 21.7501 20.3979L21.7546 22.5615C22.016 22.6343 22.366 22.7206 22.6887 22.8002C23.0819 22.8979 23.4433 22.9865 23.6615 23.0615C24.2047 23.2502 24.3001 23.5524 24.466 24.0774C24.516 24.2343 24.5751 24.4274 24.6797 24.6593C24.7797 24.8843 24.8387 25.0024 24.8865 25.0934H24.8887C25.0297 25.3729 25.1047 25.5184 25.0978 25.8001C25.0888 26.0933 24.9956 26.2502 24.8001 26.5774C24.7342 26.6865 24.6547 26.8206 24.5978 26.9206C24.5228 27.0547 24.4569 27.1615 24.3842 27.2842C24.2569 27.4979 24.1024 27.7569 23.9842 27.966L25.5024 29.4888C25.6592 29.4002 25.8319 29.2979 25.9706 29.2138L25.9729 29.2115L26.1388 29.1138L26.1592 29.1024C26.4251 28.9456 26.591 28.8456 26.7206 28.7638C27.1069 28.5229 27.2956 28.4092 27.5888 28.3797C27.9183 28.3479 28.0842 28.4342 28.4047 28.6001C28.5319 28.6661 28.7047 28.7547 28.9501 28.8592C29.0001 28.8797 29.0978 28.9092 29.2024 28.9433L29.2342 28.9547C29.5592 29.0547 29.9251 29.1706 30.1569 29.4024C30.1728 29.4183 30.191 29.4365 30.2046 29.4547C30.4183 29.7115 30.5705 30.3433 30.7274 30.9933C30.7887 31.2524 30.8524 31.516 30.9092 31.7251L31.9274 31.7228C31.9501 31.7206 31.9705 31.7206 31.9933 31.7206C32.0137 31.7206 32.0342 31.7206 32.0546 31.7228L33.0774 31.7206C33.1342 31.5115 33.1978 31.2433 33.2614 30.9797C33.266 30.9592 33.2728 30.9365 33.2796 30.916C33.4274 30.3024 33.5705 29.7138 33.7774 29.4615C33.7933 29.441 33.8114 29.4229 33.8296 29.4047C34.0774 29.1592 34.4546 29.0433 34.7932 28.9388C34.9091 28.9047 35.0182 28.8706 35.0728 28.8456C35.2932 28.7479 35.441 28.6751 35.5523 28.616C35.8978 28.4388 36.0796 28.3479 36.4205 28.3842C36.7273 28.416 36.9342 28.5433 37.3637 28.8092C37.4682 28.8729 37.591 28.9501 37.8569 29.1092L37.8614 29.1115L38.0137 29.2024C38.1546 29.2865 38.3319 29.3956 38.4887 29.4842L40.0046 27.9683C39.9024 27.7842 39.7683 27.5638 39.6501 27.366C39.5501 27.2024 39.4592 27.0501 39.366 26.8796C39.3069 26.7705 39.2319 26.641 39.1683 26.5319C38.9842 26.2137 38.8955 26.0615 38.891 25.7728C38.8865 25.5046 38.9592 25.366 39.0955 25.1046C39.1455 25.0115 39.2115 24.8842 39.3137 24.6546C39.4524 24.3387 39.516 24.1274 39.5592 23.9773C39.7342 23.3842 39.7887 23.2024 40.4615 23.0183C40.741 22.941 40.8842 22.9046 41.0342 22.866C41.0547 22.8615 41.0751 22.8569 41.0956 22.8524C41.4728 22.7546 41.9206 22.641 42.2387 22.5501L42.2342 20.3888C41.9887 20.3206 41.6728 20.2388 41.4001 20.1706C41.1774 20.1138 40.9819 20.066 40.8614 20.0297L40.8364 20.0229C40.7933 20.0115 40.7455 20.0001 40.6978 19.9865C40.566 19.9547 40.4274 19.9206 40.3251 19.8842L40.2842 19.8683C39.7887 19.6933 39.7501 19.566 39.6228 19.1388L39.6069 19.0842L39.5956 19.0433C39.3865 18.3683 39.2115 18.0524 39.1069 17.8638C38.9933 17.6615 38.9228 17.5342 38.8978 17.3115C38.8569 16.9433 38.966 16.7547 39.2592 16.2502L39.2819 16.2115L39.3842 16.0343L39.9728 14.9524L38.4864 13.4638C38.2183 13.6138 37.8637 13.8206 37.6251 13.9592L37.5841 13.982L37.4069 14.0842L37.4046 14.0865C37.2546 14.1729 37.1841 14.2161 37.1251 14.2501C36.7705 14.4615 36.6046 14.5592 36.2978 14.5638C36.0205 14.5683 35.8682 14.491 35.5841 14.3456C35.4864 14.2956 35.3568 14.2297 35.1705 14.1456C34.8568 14.0047 34.6409 13.9411 34.4909 13.8979C33.9023 13.7251 33.7227 13.6729 33.5386 12.9979C33.5091 12.891 33.4614 12.7024 33.4046 12.4819C33.3023 12.0842 33.1705 11.5751 33.0727 11.2297H30.9045C30.8477 11.4388 30.7841 11.7024 30.7227 11.9638C30.5704 12.6047 30.4204 13.2252 30.2068 13.4865C30.1909 13.5047 30.175 13.5229 30.1568 13.5411C29.9295 13.7661 29.4955 13.9115 29.1159 14.0411C28.9659 14.0911 28.8272 14.1388 28.775 14.1615C28.5863 14.2456 28.4341 14.3229 28.325 14.3774V14.3797C28.1545 14.4661 28.05 14.5183 27.8863 14.5524C27.525 14.6274 27.3931 14.5524 27.0727 14.3661L27.0409 14.3479L26.8704 14.2479L26.8682 14.2456V14.2479C26.5318 14.0501 25.8954 13.6797 25.4932 13.4592L24.0046 14.9615ZM23.0023 16.1615C23.091 16.3183 23.1796 16.4706 23.341 16.7684C23.3478 16.782 23.3569 16.7956 23.366 16.8093C23.4182 16.9047 23.4887 17.0274 23.5501 17.132L23.5478 17.1343C23.5546 17.1456 23.5614 17.1547 23.566 17.1593L23.5864 17.1888C23.5182 17.3229 23.4251 17.5024 23.3387 17.6979C23.1705 18.0774 23.0887 18.3502 23.0319 18.5433L22.6273 18.6479C21.9274 18.8274 20.9501 19.082 20.6819 19.2206C20.4114 19.3615 20.2637 19.6479 20.2887 19.9343L20.2955 23.0729C20.2955 23.3524 20.4523 23.5956 20.6819 23.7184C21.0023 23.8888 21.7114 24.0638 22.3387 24.2184C22.7046 24.307 23.0387 24.3911 23.1796 24.4388C23.2092 24.4502 23.2205 24.4547 23.2228 24.4593L23.2069 24.4638C23.1637 24.4661 23.0501 24.4593 23.066 24.507C23.1273 24.7025 23.2046 24.9456 23.3364 25.2456C23.4205 25.4365 23.5137 25.6161 23.5819 25.7524L23.5796 25.757C23.5842 25.7638 23.5864 25.7683 23.591 25.7706L23.5955 25.7797C23.5819 25.7797 23.566 25.7865 23.5432 25.8229C23.4955 25.9047 23.4342 26.0047 23.3251 26.2002C23.3023 26.2411 23.2205 26.3752 23.1296 26.5297C22.8614 26.9774 22.4978 27.5865 22.4046 27.9252C22.3319 28.1865 22.4114 28.457 22.591 28.6365L24.8319 30.8843C25.0274 31.0797 25.3046 31.1434 25.5524 31.0729V31.0752C25.8569 30.9888 26.3774 30.6775 26.7228 30.4729L26.8887 30.3752L26.9001 30.3683C27.1205 30.2388 27.3296 30.1115 27.4932 30.0093C27.6864 29.8911 27.6841 29.8411 27.7319 29.8365C27.8296 29.8274 27.6682 29.8661 27.741 29.9024C27.891 29.9797 28.0887 30.082 28.3842 30.207C28.4978 30.2547 28.6342 30.2956 28.7774 30.3411L28.816 30.3524C28.9296 30.3865 29.041 30.4138 29.0978 30.432L29.3137 31.332C29.4546 31.9138 29.5978 32.5115 29.7592 32.8093C29.8955 33.0593 30.1546 33.1979 30.4228 33.1911L31.2682 33.1888V37.4843C30.316 37.6366 29.4614 38.0866 28.7978 38.7297C28.7819 38.7434 28.766 38.757 28.7523 38.7729C28.0842 39.4411 27.6205 40.3138 27.4637 41.2911L15.4684 41.2865C15.0638 41.2865 14.7343 41.6161 14.7343 42.0206V50.841H11.6047C11.2002 50.841 10.8707 51.1705 10.8707 51.575V59.3022C10.8707 59.7067 11.2002 60.0363 11.6047 60.0363H19.3342C19.7387 60.0363 20.0683 59.7067 20.0683 59.3022V51.575C20.0683 51.1705 19.7387 50.841 19.3342 50.841H16.2047V42.7566H27.4617C27.614 43.7089 28.064 44.5634 28.7094 45.2271C28.723 45.243 28.7367 45.2589 28.7503 45.2725C29.4185 45.9407 30.2912 46.4043 31.2662 46.5611V50.8543H28.1367C27.7321 50.8543 27.4026 51.1839 27.4026 51.5884V59.3178C27.4026 59.7224 27.7321 60.0519 28.1367 60.0519H35.8661C36.2706 60.0519 36.6002 59.7224 36.6002 59.3178L36.5979 51.5884C36.5979 51.1838 36.2684 50.8543 35.8638 50.8543H32.7343V46.5611C33.7093 46.4043 34.5843 45.9407 35.2502 45.2725L35.2479 45.2702C35.9161 44.6021 36.3797 43.7294 36.5365 42.7543H47.7935L47.7958 50.8544H44.6663C44.2617 50.8544 43.9322 51.184 43.9322 51.5885V59.318C43.9322 59.7225 44.2617 60.052 44.6663 60.052H52.3957C52.8003 60.052 53.1298 59.7225 53.1298 59.318L53.1275 51.5885C53.1275 51.184 52.798 50.8544 52.3935 50.8544H49.2639V42.0201C49.2639 41.6155 48.9344 41.286 48.5298 41.286H36.5415C36.3847 40.311 35.921 39.436 35.2529 38.7678C34.5847 38.0997 33.712 37.636 32.737 37.4792V33.1815L33.6052 33.1792C33.8802 33.1792 34.1188 33.0292 34.2438 32.8065H34.2461C34.4188 32.4974 34.562 31.8974 34.7006 31.3156C34.7052 31.2952 34.7097 31.2747 34.712 31.2542C34.7984 30.8906 34.8802 30.5475 34.912 30.4292C34.9756 30.411 35.1029 30.3792 35.2325 30.3406C35.3893 30.2929 35.537 30.2474 35.6665 30.1906C35.8984 30.0883 36.0824 29.9951 36.2279 29.9201C36.3165 29.8747 36.1984 29.8338 36.2802 29.8429C36.3052 29.8451 36.3688 29.9111 36.6052 30.0565C36.7711 30.1588 36.9756 30.2861 37.1165 30.3701L37.2688 30.4611C37.6097 30.6679 38.1302 30.9815 38.4575 31.0747C38.7325 31.152 39.0166 31.0611 39.1961 30.8633L41.4165 28.6474C41.612 28.452 41.6756 28.177 41.6052 27.927H41.6074C41.512 27.5883 41.1893 27.0542 40.9211 26.6133C40.8052 26.4224 40.7006 26.2497 40.6665 26.1838C40.562 25.9906 40.4983 25.8838 40.4529 25.802C40.4393 25.7815 40.4302 25.7724 40.4211 25.7701C40.4915 25.6383 40.5824 25.4611 40.6756 25.252C40.8438 24.8724 40.9256 24.5997 40.9824 24.4065L41.4165 24.2952C41.4392 24.2906 41.4597 24.2838 41.4802 24.2747C42.1665 24.0974 43.0665 23.8656 43.3324 23.727C43.6029 23.5861 43.7506 23.2974 43.7256 23.0133L43.7188 19.8747C43.7188 19.5952 43.562 19.352 43.3324 19.2292C43.0393 19.0724 42.3301 18.8929 41.7801 18.7542C41.5824 18.7042 41.4074 18.661 41.287 18.6247L41.2483 18.6133C41.1961 18.5997 41.1347 18.5838 41.0733 18.5701L40.9983 18.552C40.7506 17.7724 40.5392 17.3906 40.4097 17.1588C40.3961 17.1361 40.3915 17.1565 40.387 17.1702L40.3824 17.1724L40.3802 17.1565C40.3688 17.0474 40.437 17.1906 40.5529 16.9883L40.5733 16.9497L40.687 16.7542L40.6961 16.7406L41.546 15.1792C41.7051 14.8883 41.6438 14.5383 41.4233 14.3133L39.1824 12.0679C38.9642 11.8497 38.6415 11.7974 38.3756 11.911C38.0324 12.0451 37.321 12.461 36.912 12.6974L36.8733 12.7201L36.7029 12.8202C36.6256 12.8633 36.5074 12.9338 36.4051 12.9951C36.2733 13.0724 36.387 13.1065 36.3006 13.1088C36.2165 13.1111 36.346 13.0883 36.2756 13.052C36.1529 12.9883 35.996 12.9088 35.7938 12.8179C35.4074 12.6429 35.137 12.5633 34.9461 12.5065C34.9165 12.3997 34.8847 12.2701 34.8483 12.127L34.8302 12.1202C34.6506 11.4224 34.387 10.4065 34.2415 10.1429C34.1074 9.90199 33.8597 9.7679 33.6029 9.76562H30.4006C30.0915 9.76562 29.8256 9.95653 29.7188 10.2293C29.5688 10.5497 29.4392 11.0975 29.3119 11.6292L29.0983 12.5224C29.021 12.5474 28.8392 12.5952 28.6597 12.6565C28.4847 12.7156 28.3256 12.7702 28.1938 12.8293C27.9801 12.9247 27.8369 12.9952 27.7301 13.0497L27.6233 12.9884V12.9861C27.0938 12.677 25.8847 11.9702 25.5506 11.877C25.2892 11.8043 25.0188 11.8838 24.8392 12.0634L22.5937 14.3043C22.3528 14.5452 22.3142 14.9089 22.4755 15.1907C22.6574 15.5588 22.8278 15.8565 23.0028 16.1611L23.0023 16.1615ZM23.2069 24.4681L23.2228 24.4636C23.2251 24.4659 23.2182 24.4681 23.2069 24.4681ZM23.6319 25.7318L23.6251 25.7363C23.6296 25.7272 23.6319 25.725 23.6319 25.7318ZM40.3615 25.7591C40.3615 25.6954 40.366 25.7432 40.3774 25.775L40.3615 25.7659V25.7591ZM40.3615 25.7659L40.3774 25.775L40.3797 25.7818C40.3706 25.7954 40.3638 25.8068 40.3615 25.7659ZM40.3706 17.1724L40.3751 17.1702C40.3728 17.177 40.3706 17.1815 40.3706 17.1724ZM34.2138 39.8063C34.7797 40.3722 35.1297 41.1563 35.1297 42.02C35.1297 42.8859 34.7797 43.6699 34.216 44.2336L34.2138 44.2359L34.2115 44.2336C33.6456 44.7995 32.8615 45.1495 31.9979 45.1495C31.1342 45.1495 30.3501 44.7995 29.7842 44.2336C29.7728 44.2222 29.7615 44.2109 29.7478 44.1995C29.2024 43.6382 28.8683 42.8699 28.8683 42.02C28.8683 41.1563 29.2183 40.3723 29.7842 39.8063C29.7956 39.795 29.8069 39.7836 29.8183 39.77C30.3819 39.2268 31.1501 38.8904 32.0001 38.8904C32.8638 38.8904 33.6478 39.2404 34.2138 39.8063ZM35.1297 52.3224V58.5816L28.8705 58.5839V52.3223L35.1297 52.3224ZM15.4887 52.3088H18.6V58.568H12.3385V52.3088H15.4887ZM51.6615 52.3224V58.5816L45.3999 58.5839V52.3223L51.6615 52.3224ZM34.4548 19.0226C33.8252 18.3953 32.9593 18.0067 32.0002 18.0067C31.0411 18.0067 30.1707 18.3953 29.5433 19.0226C28.9161 19.6499 28.5274 20.5203 28.5274 21.4794C28.5274 22.4385 28.9161 23.3067 29.5433 23.934C30.1729 24.5636 31.0388 24.9499 31.9979 24.9499C32.9593 24.9499 33.8274 24.5613 34.4525 23.9363L34.4548 23.934C35.0798 23.309 35.4684 22.4386 35.4684 21.4794C35.473 20.5204 35.0843 19.6522 34.4548 19.0226Z" fill="white"/>
</svg>
