<svg width="64" height="64" viewBox="0 0 64 64" fill="none" xmlns="http://www.w3.org/2000/svg">
<path d="M26.7547 52.7544C26.5246 52.7544 26.3039 52.6269 26.1951 52.4031C26.0459 52.0953 26.1734 51.7223 26.4811 51.5731L28.8158 50.4352L21.0189 38.9139L20.8355 38.9885L16.3277 48.6134C16.2468 48.7844 16.0945 48.9087 15.9142 48.9523L14.4748 49.6393C14.3006 49.7232 14.0955 49.7202 13.9214 49.63C13.7473 49.5399 13.6261 49.3782 13.595 49.1854L12.4105 42.5077C12.0001 42.6879 11.366 42.803 10.5856 42.4019C9.98562 42.088 9.51622 41.5937 9.18356 40.9284C9.17112 40.9097 9.16173 40.891 9.15241 40.8693C8.82288 40.1823 8.7234 39.489 8.85403 38.8113C8.91305 38.5035 9.01254 38.2517 9.13378 38.0434C8.54619 38.0558 7.96799 38.0527 7.39903 38.0371C7.15967 38.0309 6.94827 37.8879 6.8488 37.6703C6.74931 37.4527 6.78661 37.1977 6.94205 37.0143C7.32756 36.5573 7.75344 36.0972 8.2136 35.6371C8.02708 35.5936 7.84987 35.5314 7.68511 35.4475C7.08506 35.1335 6.61252 34.6392 6.27987 33.9739C6.26744 33.9552 6.25812 33.9366 6.24879 33.918C5.91925 33.2277 5.81976 32.5376 5.95034 31.8599C6.12443 30.9397 6.65915 30.5075 7.07573 30.3054L7.19074 30.2495L3.6902 25.8505C3.57206 25.7013 3.52854 25.5085 3.57206 25.322C3.61559 25.1386 3.73995 24.9831 3.91093 24.8992L5.45602 24.1624C5.60213 24.094 5.76381 24.0846 5.91303 24.1313L15.6002 25.6639L15.9577 25.4681L14.1204 15.9799L11.8696 17.0742C11.5618 17.2235 11.1888 17.096 11.0395 16.7882C10.8903 16.4804 11.0177 16.1074 11.3255 15.9581L14.2292 14.5467C14.2541 14.5312 14.279 14.5156 14.3069 14.5032C15.5567 13.8939 16.8033 13.2877 18.053 12.6815C18.0717 12.6721 18.0904 12.6628 18.109 12.6566L22.0821 10.729C22.3899 10.5799 22.7629 10.7074 22.9122 11.0182C23.0614 11.326 22.934 11.6991 22.6231 11.8483L19.9774 13.1322C24.2179 14.5343 28.4242 15.9177 32.503 17.2514C34.8594 16.3188 37.2502 15.6255 39.6098 15.1871C39.8087 15.1499 40.0139 15.212 40.1569 15.355L41.3662 16.5333C42.1559 16.1695 42.9549 15.8214 43.7476 15.498C44.4596 14.7488 45.4046 14.155 46.5704 13.7292C47.7736 13.2877 48.9021 13.1384 49.9249 13.2814C50.0182 13.2939 50.1084 13.3095 50.1985 13.3281C53.3322 12.4887 56.5529 11.9446 59.7768 11.7084C60.0006 11.6928 60.2152 11.7986 60.3395 11.9851C60.4638 12.1716 60.4794 12.411 60.3768 12.6099C60.3582 12.6441 60.3302 12.6938 60.3053 12.725C56.4845 17.6432 51.414 21.7344 45.2212 24.893L45.7777 27.7251C45.815 27.9116 45.7653 28.1044 45.6409 28.2505C45.6098 28.2847 45.5787 28.3189 45.5445 28.3469C45.5352 28.3531 45.529 28.3593 45.5197 28.3655C43.3435 30.0443 41.189 31.6019 39.1154 32.9977C37.5579 37.9004 35.9973 42.8341 34.4708 47.687L37.1973 46.3626C37.5051 46.2134 37.8781 46.3408 38.0274 46.6517C38.1766 46.9595 38.0491 47.3326 37.7382 47.4818L27.0283 52.6829C26.9381 52.7327 26.848 52.7544 26.7547 52.7544ZM21.2552 37.5242C21.4572 37.5242 21.6531 37.6237 21.7712 37.7978L29.9506 49.885L32.9351 48.4362C34.5952 43.1543 36.2989 37.7667 37.9994 32.4164C38.0429 32.2827 38.13 32.1676 38.245 32.0868C40.2626 30.7345 42.3611 29.2236 44.4875 27.5914L43.9124 24.6691C43.8595 24.3955 43.9932 24.1188 44.245 23.9914C49.9809 21.1281 54.7467 17.4597 58.4276 13.0732C56.2078 13.3001 53.9944 13.6762 51.8182 14.1986C51.9767 14.3944 52.0762 14.5965 52.1384 14.7768C52.4151 15.6007 52.1415 16.468 51.3301 17.3509C50.6306 18.1282 49.6668 18.7499 48.4638 19.1913C47.2606 19.6328 46.1259 19.7821 45.0937 19.6297C43.6388 19.4276 43.0979 18.7064 42.9052 18.1375C42.8057 17.8452 42.7777 17.5437 42.8181 17.2421C42.3829 17.4348 41.9476 17.6307 41.5155 17.8359C41.5124 17.839 41.5061 17.839 41.5031 17.8421H41.4999C27.0314 24.2588 16.6603 30.0568 10.682 35.0713L10.309 35.3884C9.77421 35.8579 9.27366 36.3273 8.81976 36.7998C9.54729 36.7905 10.2871 36.7594 11.0395 36.7034C11.0612 36.7034 11.083 36.7003 11.1048 36.7034C12.0033 36.2651 12.9017 35.8298 13.8002 35.3946C14.1079 35.2454 14.481 35.3729 14.6302 35.6838C14.7794 35.9916 14.652 36.3646 14.3411 36.5138C13.3805 36.977 12.4198 37.4434 11.4592 37.9128C11.4344 37.9283 11.4095 37.9439 11.3815 37.9564L10.5296 38.3729C10.3649 38.4537 10.1659 38.5998 10.082 39.0444C10.0043 39.4485 10.0602 39.8527 10.2592 40.2848C10.2685 40.3004 10.2778 40.3159 10.2841 40.3315C10.5017 40.7822 10.7908 41.0963 11.1639 41.289C11.5556 41.4911 11.7918 41.4227 11.9535 41.3418L12.4602 41.1025C12.4882 41.09 12.5224 41.0714 12.5628 41.0527L12.566 41.0496C12.7587 40.9346 12.9981 40.9315 13.1908 41.0403C13.3649 41.1398 13.48 41.3139 13.5017 41.5128L14.68 48.1533L15.3111 47.8549L19.8189 38.2299C19.8841 38.09 20.0023 37.9781 20.1453 37.919L21.0189 37.5615C21.0966 37.5397 21.1743 37.5242 21.2552 37.5242ZM7.35245 33.3397C7.36176 33.3553 7.37108 33.3708 7.37727 33.3863C7.59494 33.8371 7.884 34.1511 8.25712 34.3438C8.54932 34.4931 9.01254 34.4993 9.60013 34.3563L9.87056 34.1262C15.824 29.1335 26.0086 23.4007 40.1476 17.0835L39.5196 16.4711C37.275 16.9095 35.0024 17.5872 32.7579 18.4888C32.7548 18.4888 32.7516 18.4919 32.7486 18.4919C27.7775 20.4784 23.6769 22.4432 20.5588 24.3334C20.2635 24.5106 19.8841 24.4173 19.7039 24.1251C19.5267 23.8328 19.6199 23.4505 19.9122 23.2701C22.7505 21.5479 26.3785 19.7727 30.7154 17.9758C26.6832 16.6545 22.5391 15.2898 18.3671 13.9094C17.3349 14.41 16.3059 14.9136 15.2737 15.4141L17.2603 25.6795C17.3131 25.9438 17.1857 26.2111 16.9494 26.3417L16.0105 26.8578C15.8893 26.923 15.7494 26.9479 15.6126 26.9262L5.80112 25.3717L5.14825 25.6826L8.33791 29.6868L10.8561 28.4681C11.1639 28.3189 11.5369 28.4464 11.6862 28.7573C11.8354 29.065 11.7079 29.4381 11.397 29.5873L8.44365 31.0174C8.43433 31.0205 8.42808 31.0267 8.41876 31.0298L7.61357 31.4184C7.45186 31.4961 7.25296 31.6454 7.16585 32.09C7.09749 32.5003 7.15348 32.9075 7.35245 33.3397ZM44.5435 16.4773C44.1145 16.9747 43.959 17.4037 44.0741 17.7457C44.1176 17.8701 44.2513 18.2649 45.2616 18.4048C46.0917 18.526 47.0212 18.3986 48.0285 18.0287C49.0388 17.6587 49.8379 17.1519 50.4037 16.5208C50.8917 15.9892 51.0752 15.5416 50.9539 15.181C50.9197 15.0783 50.8078 14.7488 50.071 14.5778C50.0648 14.5778 50.0617 14.5747 50.0555 14.5747C49.9622 14.5498 49.8596 14.5312 49.7508 14.5156C48.9332 14.4007 48.0067 14.5281 46.9995 14.898C45.9953 15.2649 45.1932 15.7685 44.6181 16.3903C44.6088 16.4027 44.5995 16.412 44.5901 16.4245C44.5746 16.4462 44.5591 16.4618 44.5435 16.4773ZM22.2376 33.2744C22.0262 33.2744 21.821 33.1687 21.7059 32.9759C21.5287 32.6837 21.622 32.3013 21.9142 32.121C25.0883 30.1966 29.2542 28.2008 34.2905 26.1863C36.7154 25.2132 39.1777 24.4888 41.6056 24.0381C41.9445 23.9758 42.2679 24.1966 42.33 24.5354C42.3922 24.8743 42.1683 25.1977 41.8326 25.2598C39.4854 25.695 37.1009 26.3945 34.7506 27.3396C29.7765 29.3262 25.6728 31.2941 22.5578 33.1842C22.4583 33.2433 22.3495 33.2744 22.2376 33.2744Z" fill="white"/>
<path d="M26.7547 52.7544C26.5246 52.7544 26.3039 52.6269 26.1951 52.4031C26.0459 52.0953 26.1734 51.7223 26.4811 51.5731L28.8158 50.4352L21.0189 38.9139L20.8355 38.9885L16.3277 48.6134C16.2468 48.7844 16.0945 48.9087 15.9142 48.9523L14.4748 49.6393C14.3006 49.7232 14.0955 49.7202 13.9214 49.63C13.7473 49.5399 13.6261 49.3782 13.595 49.1854L12.4105 42.5077C12.0001 42.6879 11.366 42.803 10.5856 42.4019C9.98562 42.088 9.51622 41.5937 9.18356 40.9284C9.17112 40.9097 9.16173 40.891 9.15241 40.8693C8.82288 40.1823 8.7234 39.489 8.85403 38.8113C8.91305 38.5035 9.01254 38.2517 9.13378 38.0434C8.54619 38.0558 7.96799 38.0527 7.39903 38.0371C7.15967 38.0309 6.94827 37.8879 6.8488 37.6703C6.74931 37.4527 6.78661 37.1977 6.94205 37.0143C7.32756 36.5573 7.75344 36.0972 8.2136 35.6371C8.02708 35.5936 7.84987 35.5314 7.68511 35.4475C7.08506 35.1335 6.61252 34.6392 6.27987 33.9739C6.26744 33.9552 6.25812 33.9366 6.24879 33.918C5.91925 33.2277 5.81976 32.5376 5.95034 31.8599C6.12443 30.9397 6.65915 30.5075 7.07573 30.3054L7.19074 30.2495L3.6902 25.8505C3.57206 25.7013 3.52854 25.5085 3.57206 25.322C3.61559 25.1386 3.73995 24.9831 3.91093 24.8992L5.45602 24.1624C5.60213 24.094 5.76381 24.0846 5.91303 24.1313L15.6002 25.6639L15.9577 25.4681L14.1204 15.9799L11.8696 17.0742C11.5618 17.2235 11.1888 17.096 11.0395 16.7882C10.8903 16.4804 11.0177 16.1074 11.3255 15.9581L14.2292 14.5467C14.2541 14.5312 14.279 14.5156 14.3069 14.5032C15.5567 13.8939 16.8033 13.2877 18.053 12.6815C18.0717 12.6721 18.0904 12.6628 18.109 12.6566L22.0821 10.729C22.3899 10.5799 22.7629 10.7074 22.9122 11.0182C23.0614 11.326 22.934 11.6991 22.6231 11.8483L19.9774 13.1322C24.2179 14.5343 28.4242 15.9177 32.503 17.2514C34.8594 16.3188 37.2502 15.6255 39.6098 15.1871C39.8087 15.1499 40.0139 15.212 40.1569 15.355L41.3662 16.5333C42.1559 16.1695 42.9549 15.8214 43.7476 15.498C44.4596 14.7488 45.4046 14.155 46.5704 13.7292C47.7736 13.2877 48.9021 13.1384 49.9249 13.2814C50.0182 13.2939 50.1084 13.3095 50.1985 13.3281C53.3322 12.4887 56.5529 11.9446 59.7768 11.7084C60.0006 11.6928 60.2152 11.7986 60.3395 11.9851C60.4638 12.1716 60.4794 12.411 60.3768 12.6099C60.3582 12.6441 60.3302 12.6938 60.3053 12.725C56.4845 17.6432 51.414 21.7344 45.2212 24.893L45.7777 27.7251C45.815 27.9116 45.7653 28.1044 45.6409 28.2505C45.6098 28.2847 45.5787 28.3189 45.5445 28.3469C45.5352 28.3531 45.529 28.3593 45.5197 28.3655C43.3435 30.0443 41.189 31.6019 39.1154 32.9977C37.5579 37.9004 35.9973 42.8341 34.4708 47.687L37.1973 46.3626C37.5051 46.2134 37.8781 46.3408 38.0274 46.6517C38.1766 46.9595 38.0491 47.3326 37.7382 47.4818L27.0283 52.6829C26.9381 52.7327 26.848 52.7544 26.7547 52.7544ZM21.2552 37.5242C21.4572 37.5242 21.6531 37.6237 21.7712 37.7978L29.9506 49.885L32.9351 48.4362C34.5952 43.1543 36.2989 37.7667 37.9994 32.4164C38.0429 32.2827 38.13 32.1676 38.245 32.0868C40.2626 30.7345 42.3611 29.2236 44.4875 27.5914L43.9124 24.6691C43.8595 24.3955 43.9932 24.1188 44.245 23.9914C49.9809 21.1281 54.7467 17.4597 58.4276 13.0732C56.2078 13.3001 53.9944 13.6762 51.8182 14.1986C51.9767 14.3944 52.0762 14.5965 52.1384 14.7768C52.4151 15.6007 52.1415 16.468 51.3301 17.3509C50.6306 18.1282 49.6668 18.7499 48.4638 19.1913C47.2606 19.6328 46.1259 19.7821 45.0937 19.6297C43.6388 19.4276 43.0979 18.7064 42.9052 18.1375C42.8057 17.8452 42.7777 17.5437 42.8181 17.2421C42.3829 17.4348 41.9476 17.6307 41.5155 17.8359C41.5124 17.839 41.5061 17.839 41.5031 17.8421H41.4999C27.0314 24.2588 16.6603 30.0568 10.682 35.0713L10.309 35.3884C9.77421 35.8579 9.27366 36.3273 8.81976 36.7998C9.54729 36.7905 10.2871 36.7594 11.0395 36.7034C11.0612 36.7034 11.083 36.7003 11.1048 36.7034C12.0033 36.2651 12.9017 35.8298 13.8002 35.3946C14.1079 35.2454 14.481 35.3729 14.6302 35.6838C14.7794 35.9916 14.652 36.3646 14.3411 36.5138C13.3805 36.977 12.4198 37.4434 11.4592 37.9128C11.4344 37.9283 11.4095 37.9439 11.3815 37.9564L10.5296 38.3729C10.3649 38.4537 10.1659 38.5998 10.082 39.0444C10.0043 39.4485 10.0602 39.8527 10.2592 40.2848C10.2685 40.3004 10.2778 40.3159 10.2841 40.3315C10.5017 40.7822 10.7908 41.0963 11.1639 41.289C11.5556 41.4911 11.7918 41.4227 11.9535 41.3418L12.4602 41.1025C12.4882 41.09 12.5224 41.0714 12.5628 41.0527L12.566 41.0496C12.7587 40.9346 12.9981 40.9315 13.1908 41.0403C13.3649 41.1398 13.48 41.3139 13.5017 41.5128L14.68 48.1533L15.3111 47.8549L19.8189 38.2299C19.8841 38.09 20.0023 37.9781 20.1453 37.919L21.0189 37.5615C21.0966 37.5397 21.1743 37.5242 21.2552 37.5242ZM7.35245 33.3397C7.36176 33.3553 7.37108 33.3708 7.37727 33.3863C7.59494 33.8371 7.884 34.1511 8.25712 34.3438C8.54932 34.4931 9.01254 34.4993 9.60013 34.3563L9.87056 34.1262C15.824 29.1335 26.0086 23.4007 40.1476 17.0835L39.5196 16.4711C37.275 16.9095 35.0024 17.5872 32.7579 18.4888C32.7548 18.4888 32.7516 18.4919 32.7486 18.4919C27.7775 20.4784 23.6769 22.4432 20.5588 24.3334C20.2635 24.5106 19.8841 24.4173 19.7039 24.1251C19.5267 23.8328 19.6199 23.4505 19.9122 23.2701C22.7505 21.5479 26.3785 19.7727 30.7154 17.9758C26.6832 16.6545 22.5391 15.2898 18.3671 13.9094C17.3349 14.41 16.3059 14.9136 15.2737 15.4141L17.2603 25.6795C17.3131 25.9438 17.1857 26.2111 16.9494 26.3417L16.0105 26.8578C15.8893 26.923 15.7494 26.9479 15.6126 26.9262L5.80112 25.3717L5.14825 25.6826L8.33791 29.6868L10.8561 28.4681C11.1639 28.3189 11.5369 28.4464 11.6862 28.7573C11.8354 29.065 11.7079 29.4381 11.397 29.5873L8.44365 31.0174C8.43433 31.0205 8.42808 31.0267 8.41876 31.0298L7.61357 31.4184C7.45186 31.4961 7.25296 31.6454 7.16585 32.09C7.09749 32.5003 7.15348 32.9075 7.35245 33.3397ZM44.5435 16.4773C44.1145 16.9747 43.959 17.4037 44.0741 17.7457C44.1176 17.8701 44.2513 18.2649 45.2616 18.4048C46.0917 18.526 47.0212 18.3986 48.0285 18.0287C49.0388 17.6587 49.8379 17.1519 50.4037 16.5208C50.8917 15.9892 51.0752 15.5416 50.9539 15.181C50.9197 15.0783 50.8078 14.7488 50.071 14.5778C50.0648 14.5778 50.0617 14.5747 50.0555 14.5747C49.9622 14.5498 49.8596 14.5312 49.7508 14.5156C48.9332 14.4007 48.0067 14.5281 46.9995 14.898C45.9953 15.2649 45.1932 15.7685 44.6181 16.3903C44.6088 16.4027 44.5995 16.412 44.5901 16.4245C44.5746 16.4462 44.5591 16.4618 44.5435 16.4773ZM22.2376 33.2744C22.0262 33.2744 21.821 33.1687 21.7059 32.9759C21.5287 32.6837 21.622 32.3013 21.9142 32.121C25.0883 30.1966 29.2542 28.2008 34.2905 26.1863C36.7154 25.2132 39.1777 24.4888 41.6056 24.0381C41.9445 23.9758 42.2679 24.1966 42.33 24.5354C42.3922 24.8743 42.1683 25.1977 41.8326 25.2598C39.4854 25.695 37.1009 26.3945 34.7506 27.3396C29.7765 29.3262 25.6728 31.2941 22.5578 33.1842C22.4583 33.2433 22.3495 33.2744 22.2376 33.2744Z" fill="white"/>
</svg>
