<svg width="64" height="64" viewBox="0 0 64 64" fill="none" xmlns="http://www.w3.org/2000/svg">
<path d="M20 28C24.411 28 28 24.411 28 20C28 15.589 24.411 12 20 12C15.589 12 12 15.589 12 20C12 24.411 15.589 28 20 28ZM20 14C23.309 14 26 16.691 26 20C26 23.309 23.309 26 20 26C16.691 26 14 23.309 14 20C14 16.691 16.691 14 20 14Z" fill="white"/>
<path d="M3 24H7.643C7.856 24.658 8.12 25.296 8.433 25.91L5.15 29.192C4.962 29.38 4.857 29.634 4.857 29.899C4.857 30.164 4.962 30.419 5.15 30.606L9.393 34.849C9.784 35.24 10.416 35.24 10.807 34.849L14.089 31.567C14.703 31.881 15.341 32.145 15.999 32.358V37C15.999 37.552 16.446 38 16.999 38H22.999C23.552 38 23.999 37.552 23.999 37V32.357C24.656 32.145 25.295 31.88 25.909 31.566L29.191 34.848C29.582 35.239 30.214 35.239 30.605 34.848L34.848 30.605C35.036 30.417 35.141 30.163 35.141 29.898C35.141 29.633 35.036 29.378 34.848 29.191L31.566 25.909C31.879 25.295 32.143 24.657 32.356 23.999H37C37.553 23.999 38 23.551 38 22.999V16.999C38 16.447 37.553 15.999 37 15.999H32.357C32.144 15.341 31.88 14.703 31.567 14.089L34.849 10.807C35.037 10.619 35.142 10.365 35.142 10.1C35.142 9.835 35.037 9.58 34.849 9.393L30.606 5.15C30.215 4.759 29.583 4.759 29.192 5.15L25.91 8.433C25.297 8.12 24.658 7.855 24 7.643V3C24 2.448 23.553 2 23 2H17C16.447 2 16 2.448 16 3V7.643C15.342 7.855 14.703 8.12 14.09 8.433L10.808 5.151C10.417 4.76 9.785 4.76 9.394 5.151L5.15 9.394C4.962 9.582 4.857 9.836 4.857 10.101C4.857 10.366 4.962 10.621 5.15 10.808L8.432 14.09C8.119 14.704 7.855 15.342 7.642 16H3C2.447 16 2 16.448 2 17V23C2 23.552 2.447 24 3 24ZM4 18H8.394C8.85 18 9.248 17.691 9.363 17.25C9.62 16.253 10.013 15.302 10.533 14.422C10.764 14.029 10.701 13.529 10.379 13.207L7.273 10.101L10.102 7.272L13.208 10.378C13.53 10.702 14.032 10.765 14.424 10.532C15.303 10.013 16.254 9.619 17.251 9.362C17.691 9.248 18 8.85 18 8.394V4H22V8.394C22 8.85 22.309 9.248 22.75 9.362C23.747 9.619 24.698 10.012 25.577 10.532C25.971 10.765 26.472 10.702 26.793 10.378L29.899 7.272L32.728 10.101L29.622 13.207C29.3 13.529 29.236 14.03 29.468 14.422C29.988 15.302 30.381 16.253 30.638 17.25C30.752 17.691 31.15 18 31.606 18H36V22H31.606C31.15 22 30.752 22.309 30.637 22.75C30.38 23.747 29.987 24.698 29.467 25.578C29.236 25.971 29.299 26.471 29.621 26.793L32.727 29.899L29.898 32.728L26.792 29.622C26.471 29.299 25.97 29.236 25.576 29.468C24.696 29.988 23.745 30.382 22.749 30.638C22.309 30.752 22 31.151 22 31.607V36H18V31.607C18 31.151 17.691 30.753 17.25 30.639C16.254 30.382 15.303 29.988 14.423 29.469C14.031 29.237 13.529 29.3 13.207 29.623L10.101 32.729L7.272 29.9L10.378 26.794C10.7 26.472 10.764 25.971 10.532 25.579C10.012 24.699 9.619 23.748 9.362 22.751C9.248 22.309 8.85 22 8.394 22H4V18Z" fill="white"/>
<path d="M5 56H25.697L34.445 61.832C34.609 61.941 34.803 62 35 62H39C39.395 62 39.753 61.768 39.913 61.407C40.074 61.046 40.008 60.625 39.743 60.331L35.808 55.958C41.116 55.755 46.39 54.422 51.142 52.047L53.495 50.871L60.607 53.919C60.733 53.974 60.867 54 61 54C61.323 54 61.637 53.843 61.828 53.561C62.097 53.164 62.046 52.632 61.707 52.293L57.774 48.36L61.68 44.733C61.981 44.453 62.08 44.017 61.93 43.634C61.78 43.252 61.411 43 61 43H60.142L61.991 29.132C62.029 28.846 61.942 28.558 61.752 28.341C61.563 28.125 61.288 28 61 28H57C56.666 28 56.354 28.167 56.168 28.445L46.465 43H35.699L39.874 35.486C40.046 35.176 40.042 34.798 39.862 34.493C39.683 34.188 39.354 34 39 34H35C34.783 34 34.573 34.07 34.4 34.2L22.667 43H15.486C9.382 43 3.982 46.892 2.051 52.684C2.018 52.786 2 52.893 2 53C2 54.654 3.346 56 5 56ZM51.872 48H54.586L55.626 49.041L55.627 49.042L56.621 50.036L51.872 48ZM57.535 30H59.857L58.124 43H48.868L57.535 30ZM35.333 36H37.301L33.412 43H26L35.333 36ZM6.472 49H13V47H8.814C10.75 45.729 13.05 45 15.486 45H58.453L56.359 46.945L55.707 46.293C55.52 46.105 55.266 46 55 46H47C46.525 46 46.116 46.334 46.021 46.799C45.925 47.264 46.17 47.732 46.607 47.919L51.086 49.839L50.247 50.258C45.351 52.706 39.87 54 34.397 54H34.045L30.743 50.331L29.257 51.669L30.156 52.668L32.856 55.668L32.857 55.669L36.755 60H35.303L26.555 54.168L20.555 50.168L19.446 51.832L22.697 54H5C4.495 54 4.077 53.625 4.01 53.138C4.558 51.573 5.406 50.178 6.472 49Z" fill="white"/>
<path d="M18 47H16V49H18V47Z" fill="white"/>
<path d="M22 47H20V49H22V47Z" fill="white"/>
<path d="M26 47H24V49H26V47Z" fill="white"/>
<path d="M30 47H28V49H30V47Z" fill="white"/>
<path d="M34 47H32V49H34V47Z" fill="white"/>
<path d="M46 33H48V17C48 16.448 47.553 16 47 16H40V18H46V33Z" fill="white"/>
<path d="M48 35H46V37H48V35Z" fill="white"/>
<path d="M42 33H44V23C44 22.448 43.553 22 43 22H40V24H42V33Z" fill="white"/>
<path d="M44 35H42V37H44V35Z" fill="white"/>
<path d="M44 39H42V41H44V39Z" fill="white"/>
</svg>
